<svg width="183" height="40" viewBox="0 0 183 40" fill="none" xmlns="http://www.w3.org/2000/svg">
<rect width="40" height="40" rx="12" fill="#0053DD"/>
<g clip-path="url(#clip0_24_6)">
<path d="M12.5 29C11.95 29 11.4792 28.8042 11.0875 28.4125C10.6958 28.0208 10.5 27.55 10.5 27V13C10.5 12.45 10.6958 11.9792 11.0875 11.5875C11.4792 11.1958 11.95 11 12.5 11H26.5C27.05 11 27.5208 11.1958 27.9125 11.5875C28.3042 11.9792 28.5 12.45 28.5 13V13H20.5C19.3167 13 18.3542 13.3708 17.6125 14.1125C16.8708 14.8542 16.5 15.8167 16.5 17V23C16.5 24.1833 16.8708 25.1458 17.6125 25.8875C18.3542 26.6292 19.3167 27 20.5 27H28.5V27C28.5 27.55 28.3042 28.0208 27.9125 28.4125C27.5208 28.8042 27.05 29 26.5 29H12.5V29M20.5 25C19.95 25 19.4792 24.8042 19.0875 24.4125C18.6958 24.0208 18.5 23.55 18.5 23V17C18.5 16.45 18.6958 15.9792 19.0875 15.5875C19.4792 15.1958 19.95 15 20.5 15H27.5C28.05 15 28.5208 15.1958 28.9125 15.5875C29.3042 15.9792 29.5 16.45 29.5 17V23C29.5 23.55 29.3042 24.0208 28.9125 24.4125C28.5208 24.8042 28.05 25 27.5 25H20.5V25M23.5 21.5C23.9333 21.5 24.2917 21.3583 24.575 21.075C24.8583 20.7917 25 20.4333 25 20C25 19.5667 24.8583 19.2083 24.575 18.925C24.2917 18.6417 23.9333 18.5 23.5 18.5C23.0667 18.5 22.7083 18.6417 22.425 18.925C22.1417 19.2083 22 19.5667 22 20C22 20.4333 22.1417 20.7917 22.425 21.075C22.7083 21.3583 23.0667 21.5 23.5 21.5V21.5" fill="white"/>
</g>
<path d="M53.26 18V5.04H61.18V7.488H55.708V10.296H60.1V12.744H55.708V18H53.26ZM62.9849 6.93V4.77H65.4329V6.93H62.9849ZM62.9849 18V8.28H65.4329V18H62.9849ZM74.7551 18V13.41C74.7551 13.188 74.7431 12.906 74.7191 12.564C74.6951 12.216 74.6201 11.868 74.4941 11.52C74.3681 11.172 74.1611 10.881 73.8731 10.647C73.5911 10.413 73.1891 10.296 72.6671 10.296C72.4571 10.296 72.2321 10.329 71.9921 10.395C71.7521 10.461 71.5271 10.59 71.3171 10.782C71.1071 10.968 70.9331 11.244 70.7951 11.61C70.6631 11.976 70.5971 12.462 70.5971 13.068L69.1931 12.402C69.1931 11.634 69.3491 10.914 69.6611 10.242C69.9731 9.57 70.4411 9.027 71.0651 8.613C71.6951 8.199 72.4871 7.992 73.4411 7.992C74.2031 7.992 74.8241 8.121 75.3041 8.379C75.7841 8.637 76.1561 8.964 76.4201 9.36C76.6901 9.756 76.8821 10.17 76.9961 10.602C77.1101 11.028 77.1791 11.418 77.2031 11.772C77.2271 12.126 77.2391 12.384 77.2391 12.546V18H74.7551ZM68.1131 18V8.28H70.2911V11.502H70.5971V18H68.1131ZM79.7545 6.93V4.77H82.2025V6.93H79.7545ZM79.7545 18V8.28H82.2025V18H79.7545ZM88.8426 18.27C87.9486 18.27 87.1656 18.045 86.4936 17.595C85.8216 17.145 85.2966 16.533 84.9186 15.759C84.5466 14.985 84.3606 14.112 84.3606 13.14C84.3606 12.15 84.5496 11.271 84.9276 10.503C85.3116 9.729 85.8486 9.12 86.5386 8.676C87.2286 8.232 88.0386 8.01 88.9686 8.01C89.8926 8.01 90.6696 8.235 91.2996 8.685C91.9296 9.135 92.4066 9.747 92.7306 10.521C93.0546 11.295 93.2166 12.168 93.2166 13.14C93.2166 14.112 93.0516 14.985 92.7216 15.759C92.3976 16.533 91.9116 17.145 91.2636 17.595C90.6156 18.045 89.8086 18.27 88.8426 18.27ZM89.2386 16.092C89.7846 16.092 90.2196 15.969 90.5436 15.723C90.8736 15.477 91.1106 15.132 91.2546 14.688C91.3986 14.244 91.4706 13.728 91.4706 13.14C91.4706 12.552 91.3986 12.036 91.2546 11.592C91.1106 11.148 90.8796 10.803 90.5616 10.557C90.2496 10.311 89.8386 10.188 89.3286 10.188C88.7826 10.188 88.3326 10.323 87.9786 10.593C87.6306 10.857 87.3726 11.214 87.2046 11.664C87.0366 12.108 86.9526 12.6 86.9526 13.14C86.9526 13.686 87.0336 14.184 87.1956 14.634C87.3576 15.078 87.6066 15.432 87.9426 15.696C88.2786 15.96 88.7106 16.092 89.2386 16.092ZM91.1646 22.32V14.94H91.4706V8.28H93.6306V22.32H91.1646ZM99.7686 18.288C99.0066 18.288 98.3856 18.159 97.9056 17.901C97.4256 17.643 97.0506 17.316 96.7806 16.92C96.5166 16.524 96.3276 16.113 96.2136 15.687C96.0996 15.255 96.0306 14.862 96.0066 14.508C95.9826 14.154 95.9706 13.896 95.9706 13.734V8.28H98.4546V12.87C98.4546 13.092 98.4666 13.377 98.4906 13.725C98.5146 14.067 98.5896 14.412 98.7156 14.76C98.8416 15.108 99.0456 15.399 99.3276 15.633C99.6156 15.867 100.021 15.984 100.543 15.984C100.753 15.984 100.978 15.951 101.218 15.885C101.458 15.819 101.683 15.693 101.893 15.507C102.103 15.315 102.274 15.036 102.406 14.67C102.544 14.298 102.613 13.812 102.613 13.212L104.017 13.878C104.017 14.646 103.861 15.366 103.549 16.038C103.237 16.71 102.766 17.253 102.136 17.667C101.512 18.081 100.723 18.288 99.7686 18.288ZM102.919 18V14.778H102.613V8.28H105.079V18H102.919ZM112.112 18.27C111.116 18.27 110.237 18.057 109.475 17.631C108.719 17.199 108.125 16.608 107.693 15.858C107.267 15.102 107.054 14.238 107.054 13.266C107.054 12.204 107.264 11.28 107.684 10.494C108.104 9.708 108.683 9.099 109.421 8.667C110.159 8.229 111.008 8.01 111.968 8.01C112.988 8.01 113.855 8.25 114.569 8.73C115.283 9.21 115.811 9.885 116.153 10.755C116.495 11.625 116.615 12.648 116.513 13.824H114.092V12.924C114.092 11.934 113.933 11.223 113.615 10.791C113.303 10.353 112.79 10.134 112.076 10.134C111.242 10.134 110.627 10.389 110.231 10.899C109.841 11.403 109.646 12.15 109.646 13.14C109.646 14.046 109.841 14.748 110.231 15.246C110.627 15.738 111.206 15.984 111.968 15.984C112.448 15.984 112.859 15.879 113.201 15.669C113.543 15.459 113.804 15.156 113.984 14.76L116.432 15.462C116.066 16.35 115.487 17.04 114.695 17.532C113.909 18.024 113.048 18.27 112.112 18.27ZM108.89 13.824V12.006H115.334V13.824H108.89ZM122.329 18V5.04H124.777V15.714H130.357V18H122.329ZM136.405 18.27C135.409 18.27 134.53 18.057 133.768 17.631C133.012 17.199 132.418 16.608 131.986 15.858C131.56 15.102 131.347 14.238 131.347 13.266C131.347 12.204 131.557 11.28 131.977 10.494C132.397 9.708 132.976 9.099 133.714 8.667C134.452 8.229 135.301 8.01 136.261 8.01C137.281 8.01 138.148 8.25 138.862 8.73C139.576 9.21 140.104 9.885 140.446 10.755C140.788 11.625 140.908 12.648 140.806 13.824H138.385V12.924C138.385 11.934 138.226 11.223 137.908 10.791C137.596 10.353 137.083 10.134 136.369 10.134C135.535 10.134 134.92 10.389 134.524 10.899C134.134 11.403 133.939 12.15 133.939 13.14C133.939 14.046 134.134 14.748 134.524 15.246C134.92 15.738 135.499 15.984 136.261 15.984C136.741 15.984 137.152 15.879 137.494 15.669C137.836 15.459 138.097 15.156 138.277 14.76L140.725 15.462C140.359 16.35 139.78 17.04 138.988 17.532C138.202 18.024 137.341 18.27 136.405 18.27ZM133.183 13.824V12.006H139.627V13.824H133.183ZM146.78 18.27C145.886 18.27 145.103 18.045 144.431 17.595C143.759 17.145 143.234 16.533 142.856 15.759C142.484 14.985 142.298 14.112 142.298 13.14C142.298 12.15 142.487 11.271 142.865 10.503C143.249 9.729 143.786 9.12 144.476 8.676C145.166 8.232 145.976 8.01 146.906 8.01C147.83 8.01 148.607 8.235 149.237 8.685C149.867 9.135 150.344 9.747 150.668 10.521C150.992 11.295 151.154 12.168 151.154 13.14C151.154 14.112 150.989 14.985 150.659 15.759C150.335 16.533 149.849 17.145 149.201 17.595C148.553 18.045 147.746 18.27 146.78 18.27ZM147.176 16.092C147.722 16.092 148.157 15.969 148.481 15.723C148.811 15.477 149.048 15.132 149.192 14.688C149.336 14.244 149.408 13.728 149.408 13.14C149.408 12.552 149.336 12.036 149.192 11.592C149.048 11.148 148.817 10.803 148.499 10.557C148.187 10.311 147.776 10.188 147.266 10.188C146.72 10.188 146.27 10.323 145.916 10.593C145.568 10.857 145.31 11.214 145.142 11.664C144.974 12.108 144.89 12.6 144.89 13.14C144.89 13.686 144.971 14.184 145.133 14.634C145.295 15.078 145.544 15.432 145.88 15.696C146.216 15.96 146.648 16.092 147.176 16.092ZM149.408 18V11.34H149.102V5.04H151.568V18H149.408ZM158.246 22.59C157.694 22.59 157.169 22.5 156.671 22.32C156.173 22.146 155.726 21.9 155.33 21.582C154.94 21.27 154.622 20.904 154.376 20.484L156.644 19.386C156.8 19.674 157.022 19.893 157.31 20.043C157.604 20.193 157.922 20.268 158.264 20.268C158.63 20.268 158.975 20.205 159.299 20.079C159.623 19.959 159.881 19.776 160.073 19.53C160.271 19.29 160.364 18.99 160.352 18.63V15.804H160.658V8.28H162.8V18.666C162.8 18.906 162.788 19.131 162.764 19.341C162.746 19.557 162.71 19.77 162.656 19.98C162.5 20.574 162.209 21.063 161.783 21.447C161.363 21.831 160.847 22.116 160.235 22.302C159.623 22.494 158.96 22.59 158.246 22.59ZM158.03 18.27C157.136 18.27 156.353 18.045 155.681 17.595C155.009 17.145 154.484 16.533 154.106 15.759C153.734 14.985 153.548 14.112 153.548 13.14C153.548 12.15 153.737 11.271 154.115 10.503C154.499 9.729 155.036 9.12 155.726 8.676C156.416 8.232 157.226 8.01 158.156 8.01C159.08 8.01 159.857 8.235 160.487 8.685C161.117 9.135 161.594 9.747 161.918 10.521C162.242 11.295 162.404 12.168 162.404 13.14C162.404 14.112 162.239 14.985 161.909 15.759C161.585 16.533 161.099 17.145 160.451 17.595C159.803 18.045 158.996 18.27 158.03 18.27ZM158.426 16.092C158.972 16.092 159.407 15.969 159.731 15.723C160.061 15.477 160.298 15.132 160.442 14.688C160.586 14.244 160.658 13.728 160.658 13.14C160.658 12.552 160.586 12.036 160.442 11.592C160.298 11.148 160.067 10.803 159.749 10.557C159.437 10.311 159.026 10.188 158.516 10.188C157.97 10.188 157.52 10.323 157.166 10.593C156.818 10.857 156.56 11.214 156.392 11.664C156.224 12.108 156.14 12.6 156.14 13.14C156.14 13.686 156.221 14.184 156.383 14.634C156.545 15.078 156.794 15.432 157.13 15.696C157.466 15.96 157.898 16.092 158.426 16.092ZM169.839 18.27C168.843 18.27 167.964 18.057 167.202 17.631C166.446 17.199 165.852 16.608 165.42 15.858C164.994 15.102 164.781 14.238 164.781 13.266C164.781 12.204 164.991 11.28 165.411 10.494C165.831 9.708 166.41 9.099 167.148 8.667C167.886 8.229 168.735 8.01 169.695 8.01C170.715 8.01 171.582 8.25 172.296 8.73C173.01 9.21 173.538 9.885 173.88 10.755C174.222 11.625 174.342 12.648 174.24 13.824H171.819V12.924C171.819 11.934 171.66 11.223 171.342 10.791C171.03 10.353 170.517 10.134 169.803 10.134C168.969 10.134 168.354 10.389 167.958 10.899C167.568 11.403 167.373 12.15 167.373 13.14C167.373 14.046 167.568 14.748 167.958 15.246C168.354 15.738 168.933 15.984 169.695 15.984C170.175 15.984 170.586 15.879 170.928 15.669C171.27 15.459 171.531 15.156 171.711 14.76L174.159 15.462C173.793 16.35 173.214 17.04 172.422 17.532C171.636 18.024 170.775 18.27 169.839 18.27ZM166.617 13.824V12.006H173.061V13.824H166.617ZM176.272 18V8.28H178.432V10.656L178.198 10.35C178.324 10.014 178.492 9.708 178.702 9.432C178.912 9.156 179.17 8.928 179.476 8.748C179.71 8.604 179.965 8.493 180.241 8.415C180.517 8.331 180.802 8.28 181.096 8.262C181.39 8.238 181.684 8.244 181.978 8.28V10.566C181.708 10.482 181.393 10.455 181.033 10.485C180.679 10.509 180.358 10.59 180.07 10.728C179.782 10.86 179.539 11.037 179.341 11.259C179.143 11.475 178.993 11.733 178.891 12.033C178.789 12.327 178.738 12.66 178.738 13.032V18H176.272Z" fill="#F8FAFC"/>
<path d="M52.8789 36V28H57.8398V29.0391H54.0859V31.4766H57.4844V32.5117H54.0859V36H52.8789ZM59.5055 36V30H60.6734V36H59.5055ZM60.0953 29.0742C59.8922 29.0742 59.7177 29.0065 59.5719 28.8711C59.4286 28.7331 59.357 28.569 59.357 28.3789C59.357 28.1862 59.4286 28.0221 59.5719 27.8867C59.7177 27.7487 59.8922 27.6797 60.0953 27.6797C60.2984 27.6797 60.4716 27.7487 60.6148 27.8867C60.7607 28.0221 60.8336 28.1862 60.8336 28.3789C60.8336 28.569 60.7607 28.7331 60.6148 28.8711C60.4716 29.0065 60.2984 29.0742 60.0953 29.0742ZM63.6877 32.4375V36H62.5197V30H63.6408V30.9766H63.715C63.8531 30.6589 64.0692 30.4036 64.3635 30.2109C64.6604 30.0182 65.034 29.9219 65.4846 29.9219C65.8934 29.9219 66.2515 30.0078 66.5588 30.1797C66.8661 30.349 67.1044 30.6016 67.2736 30.9375C67.4429 31.2734 67.5275 31.6888 67.5275 32.1836V36H66.3596V32.3242C66.3596 31.8893 66.2463 31.5495 66.0197 31.3047C65.7932 31.0573 65.482 30.9336 65.0861 30.9336C64.8153 30.9336 64.5744 30.9922 64.3635 31.1094C64.1551 31.2266 63.9898 31.3984 63.8674 31.625C63.7476 31.849 63.6877 32.1198 63.6877 32.4375ZM71.115 36.1328C70.7348 36.1328 70.3911 36.0625 70.0838 35.9219C69.7765 35.7786 69.533 35.5716 69.3533 35.3008C69.1762 35.0299 69.0877 34.6979 69.0877 34.3047C69.0877 33.9661 69.1528 33.6875 69.283 33.4687C69.4132 33.25 69.589 33.0768 69.8104 32.9492C70.0317 32.8216 70.2791 32.7253 70.5525 32.6602C70.826 32.5951 71.1046 32.5456 71.3885 32.5117C71.7479 32.4701 72.0395 32.4362 72.2635 32.4102C72.4874 32.3815 72.6502 32.3359 72.7518 32.2734C72.8533 32.2109 72.9041 32.1094 72.9041 31.9687V31.9414C72.9041 31.6003 72.8077 31.3359 72.615 31.1484C72.4249 30.9609 72.1411 30.8672 71.7635 30.8672C71.3702 30.8672 71.0604 30.9544 70.8338 31.1289C70.6098 31.3008 70.4549 31.4922 70.3689 31.7031L69.2713 31.4531C69.4015 31.0885 69.5916 30.7943 69.8416 30.5703C70.0942 30.3437 70.3846 30.1797 70.7127 30.0781C71.0408 29.974 71.3859 29.9219 71.7479 29.9219C71.9874 29.9219 72.2413 29.9505 72.5096 30.0078C72.7804 30.0625 73.033 30.1641 73.2674 30.3125C73.5044 30.4609 73.6984 30.6732 73.8494 30.9492C74.0005 31.2227 74.076 31.5781 74.076 32.0156V36H72.9354V35.1797H72.8885C72.813 35.3307 72.6997 35.4792 72.5486 35.625C72.3976 35.7708 72.2036 35.8919 71.9666 35.9883C71.7296 36.0846 71.4458 36.1328 71.115 36.1328ZM71.3689 35.1953C71.6919 35.1953 71.9679 35.1315 72.1971 35.0039C72.4288 34.8763 72.6046 34.7096 72.7244 34.5039C72.8468 34.2956 72.908 34.0729 72.908 33.8359V33.0625C72.8663 33.1042 72.7856 33.1432 72.6658 33.1797C72.5486 33.2135 72.4145 33.2435 72.2635 33.2695C72.1124 33.293 71.9653 33.3151 71.8221 33.3359C71.6788 33.3542 71.5591 33.3698 71.4627 33.3828C71.2361 33.4115 71.0291 33.4596 70.8416 33.5273C70.6567 33.5951 70.5083 33.6927 70.3963 33.8203C70.2869 33.9453 70.2322 34.112 70.2322 34.3203C70.2322 34.6094 70.339 34.8281 70.5525 34.9766C70.7661 35.1224 71.0382 35.1953 71.3689 35.1953ZM77.0746 32.4375V36H75.9066V30H77.0277V30.9766H77.102C77.24 30.6589 77.4561 30.4036 77.7504 30.2109C78.0473 30.0182 78.421 29.9219 78.8715 29.9219C79.2803 29.9219 79.6384 30.0078 79.9457 30.1797C80.253 30.349 80.4913 30.6016 80.6605 30.9375C80.8298 31.2734 80.9145 31.6888 80.9145 32.1836V36H79.7465V32.3242C79.7465 31.8893 79.6332 31.5495 79.4066 31.3047C79.1801 31.0573 78.8689 30.9336 78.473 30.9336C78.2022 30.9336 77.9613 30.9922 77.7504 31.1094C77.5421 31.2266 77.3767 31.3984 77.2543 31.625C77.1345 31.849 77.0746 32.1198 77.0746 32.4375ZM85.2832 36.1211C84.7025 36.1211 84.2025 35.9896 83.7832 35.7266C83.3665 35.4609 83.0462 35.0951 82.8223 34.6289C82.5983 34.1628 82.4863 33.6289 82.4863 33.0273C82.4863 32.418 82.6009 31.8802 82.8301 31.4141C83.0592 30.9453 83.3822 30.5794 83.7988 30.3164C84.2155 30.0534 84.7064 29.9219 85.2715 29.9219C85.7272 29.9219 86.1335 30.0065 86.4902 30.1758C86.847 30.3424 87.1348 30.5768 87.3535 30.8789C87.5749 31.181 87.7064 31.5339 87.748 31.9375H86.6113C86.5488 31.6562 86.4056 31.4141 86.1816 31.2109C85.9603 31.0078 85.6634 30.9062 85.291 30.9062C84.9655 30.9062 84.6803 30.9922 84.4355 31.1641C84.1934 31.3333 84.0046 31.5755 83.8691 31.8906C83.7337 32.2031 83.666 32.5729 83.666 33C83.666 33.4375 83.7324 33.8151 83.8652 34.1328C83.998 34.4505 84.1855 34.6966 84.4277 34.8711C84.6725 35.0456 84.9603 35.1328 85.291 35.1328C85.5124 35.1328 85.7129 35.0924 85.8926 35.0117C86.0749 34.9284 86.2272 34.8099 86.3496 34.6562C86.4746 34.5026 86.5618 34.3177 86.6113 34.1016H87.748C87.7064 34.4896 87.5801 34.8359 87.3691 35.1406C87.1582 35.4453 86.8757 35.6849 86.5215 35.8594C86.1699 36.0339 85.7572 36.1211 85.2832 36.1211ZM91.858 36.1211C91.2669 36.1211 90.7577 35.9948 90.3307 35.7422C89.9062 35.487 89.5781 35.1289 89.3463 34.668C89.1171 34.2044 89.0025 33.6615 89.0025 33.0391C89.0025 32.4245 89.1171 31.8828 89.3463 31.4141C89.5781 30.9453 89.901 30.5794 90.315 30.3164C90.7317 30.0534 91.2187 29.9219 91.776 29.9219C92.1145 29.9219 92.4426 29.9779 92.7604 30.0898C93.0781 30.2018 93.3632 30.3776 93.6158 30.6172C93.8684 30.8568 94.0676 31.168 94.2135 31.5508C94.3593 31.931 94.4322 32.3932 94.4322 32.9375V33.3516H89.6627V32.4766H93.2877C93.2877 32.1693 93.2252 31.8971 93.1002 31.6602C92.9752 31.4206 92.7994 31.2318 92.5729 31.0937C92.3489 30.9557 92.0859 30.8867 91.7838 30.8867C91.4557 30.8867 91.1692 30.9674 90.9244 31.1289C90.6822 31.2878 90.4947 31.4961 90.3619 31.7539C90.2317 32.0091 90.1666 32.2865 90.1666 32.5859V33.2695C90.1666 33.6706 90.2369 34.0117 90.3775 34.293C90.5208 34.5742 90.72 34.7891 90.9752 34.9375C91.2304 35.0833 91.5286 35.1562 91.8697 35.1562C92.0911 35.1562 92.2929 35.125 92.4752 35.0625C92.6575 34.9974 92.815 34.901 92.9479 34.7734C93.0807 34.6458 93.1822 34.4883 93.2525 34.3008L94.358 34.5C94.2695 34.8255 94.1106 35.1107 93.8814 35.3555C93.6549 35.5977 93.3697 35.7865 93.026 35.9219C92.6848 36.0547 92.2955 36.1211 91.858 36.1211ZM98.8885 29.0391V28H105.08V29.0391H102.584V36H101.381V29.0391H98.8885ZM106.006 36V30H107.135V30.9531H107.198C107.307 30.6302 107.5 30.3763 107.776 30.1914C108.054 30.0039 108.37 29.9102 108.721 29.9102C108.794 29.9102 108.88 29.9128 108.979 29.918C109.08 29.9232 109.16 29.9297 109.217 29.9375V31.0547C109.17 31.0417 109.087 31.0273 108.967 31.0117C108.847 30.9935 108.728 30.9844 108.608 30.9844C108.332 30.9844 108.086 31.043 107.87 31.1602C107.656 31.2747 107.487 31.4349 107.362 31.6406C107.237 31.8437 107.174 32.0755 107.174 32.3359V36H106.006ZM112.195 36.1328C111.815 36.1328 111.471 36.0625 111.164 35.9219C110.857 35.7786 110.613 35.5716 110.434 35.3008C110.257 35.0299 110.168 34.6979 110.168 34.3047C110.168 33.9661 110.233 33.6875 110.363 33.4687C110.493 33.25 110.669 33.0768 110.891 32.9492C111.112 32.8216 111.359 32.7253 111.633 32.6602C111.906 32.5951 112.185 32.5456 112.469 32.5117C112.828 32.4701 113.12 32.4362 113.344 32.4102C113.568 32.3815 113.73 32.3359 113.832 32.2734C113.934 32.2109 113.984 32.1094 113.984 31.9687V31.9414C113.984 31.6003 113.888 31.3359 113.695 31.1484C113.505 30.9609 113.221 30.8672 112.844 30.8672C112.451 30.8672 112.141 30.9544 111.914 31.1289C111.69 31.3008 111.535 31.4922 111.449 31.7031L110.352 31.4531C110.482 31.0885 110.672 30.7943 110.922 30.5703C111.174 30.3437 111.465 30.1797 111.793 30.0781C112.121 29.974 112.466 29.9219 112.828 29.9219C113.068 29.9219 113.322 29.9505 113.59 30.0078C113.861 30.0625 114.113 30.1641 114.348 30.3125C114.585 30.4609 114.779 30.6732 114.93 30.9492C115.081 31.2227 115.156 31.5781 115.156 32.0156V36H114.016V35.1797H113.969C113.893 35.3307 113.78 35.4792 113.629 35.625C113.478 35.7708 113.284 35.8919 113.047 35.9883C112.81 36.0846 112.526 36.1328 112.195 36.1328ZM112.449 35.1953C112.772 35.1953 113.048 35.1315 113.277 35.0039C113.509 34.8763 113.685 34.7096 113.805 34.5039C113.927 34.2956 113.988 34.0729 113.988 33.8359V33.0625C113.947 33.1042 113.866 33.1432 113.746 33.1797C113.629 33.2135 113.495 33.2435 113.344 33.2695C113.193 33.293 113.046 33.3151 112.902 33.3359C112.759 33.3542 112.639 33.3698 112.543 33.3828C112.316 33.4115 112.109 33.4596 111.922 33.5273C111.737 33.5951 111.589 33.6927 111.477 33.8203C111.367 33.9453 111.312 34.112 111.312 34.3203C111.312 34.6094 111.419 34.8281 111.633 34.9766C111.846 35.1224 112.118 35.1953 112.449 35.1953ZM119.514 36.1211C118.934 36.1211 118.434 35.9896 118.014 35.7266C117.598 35.4609 117.277 35.0951 117.053 34.6289C116.829 34.1628 116.717 33.6289 116.717 33.0273C116.717 32.418 116.832 31.8802 117.061 31.4141C117.29 30.9453 117.613 30.5794 118.03 30.3164C118.447 30.0534 118.937 29.9219 119.503 29.9219C119.958 29.9219 120.365 30.0065 120.721 30.1758C121.078 30.3424 121.366 30.5768 121.585 30.8789C121.806 31.181 121.937 31.5339 121.979 31.9375H120.842C120.78 31.6562 120.637 31.4141 120.413 31.2109C120.191 31.0078 119.894 30.9062 119.522 30.9062C119.197 30.9062 118.911 30.9922 118.667 31.1641C118.424 31.3333 118.236 31.5755 118.1 31.8906C117.965 32.2031 117.897 32.5729 117.897 33C117.897 33.4375 117.963 33.8151 118.096 34.1328C118.229 34.4505 118.417 34.6966 118.659 34.8711C118.904 35.0456 119.191 35.1328 119.522 35.1328C119.743 35.1328 119.944 35.0924 120.124 35.0117C120.306 34.9284 120.458 34.8099 120.581 34.6562C120.706 34.5026 120.793 34.3177 120.842 34.1016H121.979C121.937 34.4896 121.811 34.8359 121.6 35.1406C121.389 35.4453 121.107 35.6849 120.753 35.8594C120.401 36.0339 119.988 36.1211 119.514 36.1211ZM124.577 33.9648L124.57 32.5391H124.773L127.163 30H128.562L125.835 32.8906H125.652L124.577 33.9648ZM123.503 36V28H124.671V36H123.503ZM127.292 36L125.144 33.1484L125.948 32.332L128.726 36H127.292ZM132.24 36.1211C131.649 36.1211 131.14 35.9948 130.713 35.7422C130.288 35.487 129.96 35.1289 129.728 34.668C129.499 34.2044 129.385 33.6615 129.385 33.0391C129.385 32.4245 129.499 31.8828 129.728 31.4141C129.96 30.9453 130.283 30.5794 130.697 30.3164C131.114 30.0534 131.601 29.9219 132.158 29.9219C132.497 29.9219 132.825 29.9779 133.142 30.0898C133.46 30.2018 133.745 30.3776 133.998 30.6172C134.25 30.8568 134.45 31.168 134.596 31.5508C134.741 31.931 134.814 32.3932 134.814 32.9375V33.3516H130.045V32.4766H133.67C133.67 32.1693 133.607 31.8971 133.482 31.6602C133.357 31.4206 133.181 31.2318 132.955 31.0937C132.731 30.9557 132.468 30.8867 132.166 30.8867C131.838 30.8867 131.551 30.9674 131.306 31.1289C131.064 31.2878 130.877 31.4961 130.744 31.7539C130.614 32.0091 130.549 32.2865 130.549 32.5859V33.2695C130.549 33.6706 130.619 34.0117 130.76 34.293C130.903 34.5742 131.102 34.7891 131.357 34.9375C131.612 35.0833 131.911 35.1562 132.252 35.1562C132.473 35.1562 132.675 35.125 132.857 35.0625C133.04 34.9974 133.197 34.901 133.33 34.7734C133.463 34.6458 133.564 34.4883 133.635 34.3008L134.74 34.5C134.651 34.8255 134.493 35.1107 134.263 35.3555C134.037 35.5977 133.752 35.7865 133.408 35.9219C133.067 36.0547 132.678 36.1211 132.24 36.1211ZM136.385 36V30H137.514V30.9531H137.577C137.686 30.6302 137.879 30.3763 138.155 30.1914C138.433 30.0039 138.748 29.9102 139.1 29.9102C139.173 29.9102 139.259 29.9128 139.358 29.918C139.459 29.9232 139.539 29.9297 139.596 29.9375V31.0547C139.549 31.0417 139.466 31.0273 139.346 31.0117C139.226 30.9935 139.107 30.9844 138.987 30.9844C138.711 30.9844 138.465 31.043 138.248 31.1602C138.035 31.2747 137.866 31.4349 137.741 31.6406C137.616 31.8437 137.553 32.0755 137.553 32.3359V36H136.385Z" fill="#94A3B8"/>
<defs>
<clipPath id="clip0_24_6">
<rect width="19" height="18" fill="white" transform="translate(10.5 11)"/>
</clipPath>
</defs>
</svg>
